<svg xmlns="http://www.w3.org/2000/svg" viewBox="0 0 320.12 40.73"><defs><style>.cls-1{fill:#00b4bb;}.cls-2{fill:#0ab4bb;}.cls-3{fill:#13b5bb;}.cls-4{fill:#12b5bc;}.cls-5{fill:#19b5bc;}.cls-6{fill:#1eb6bc;}.cls-7{fill:#23b6bc;}.cls-8{fill:#23b6bd;}.cls-9{fill:#27b6bd;}.cls-10{fill:#2ab7be;}.cls-11{fill:#2eb7be;}.cls-12{fill:#31b8be;}.cls-13{fill:#34b8bf;}.cls-14{fill:#37b8bf;}.cls-15{fill:#39b9c0;}.cls-16{fill:#3cb9c0;}.cls-17{fill:#3ebac0;}.cls-18{fill:#41bac0;}.cls-19{fill:#43bac0;}.cls-20{fill:#45bbc1;}.cls-21{fill:#47bbc1;}.cls-22{fill:#4abcc1;}.cls-23{fill:#49bcc2;}.cls-24{fill:#4cbcc2;}.cls-25{fill:#4ebcc2;}.cls-26{fill:#4dbcc3;}.cls-27{fill:#4fbdc3;}.cls-28{fill:#51bdc3;}.cls-29{fill:#53bdc3;}.cls-30{fill:#53bec4;}.cls-31{fill:#55bec4;}.cls-32{fill:#57bec4;}.cls-33{fill:#59bfc5;}.cls-34{fill:#5abfc5;}.cls-35{fill:#5cc0c6;}.cls-36{fill:#5dc0c6;}.cls-37{fill:#5fc0c6;}.cls-38{fill:#61c1c6;}.cls-39{fill:#62c1c7;}.cls-40{fill:#64c2c7;}.cls-41{fill:#65c2c7;}.cls-42{fill:#67c2c7;}.cls-43{fill:#67c2c8;}.cls-44{fill:#68c3c8;}.cls-45{fill:#6ac3c8;}.cls-46{fill:#6ac3c9;}.cls-47{fill:#6bc4c9;}.cls-48{fill:#6dc4c9;}.cls-49{fill:#6ec5ca;}.cls-50{fill:#70c5ca;}.cls-51{fill:#71c5ca;}.cls-52{fill:#71c5cb;}.cls-53{fill:#73c6cb;}.cls-54{fill:#74c6cb;}.cls-55{fill:#75c7cc;}.cls-56{fill:#77c7cc;}.cls-57{fill:#78c8cd;}.cls-58{fill:#79c8cd;}.cls-59{fill:#7bc8cd;}.cls-60{fill:#7cc9ce;}.cls-61{fill:#7ec9ce;}.cls-62{fill:#7fcace;}.cls-63{fill:#80cace;}.cls-64{fill:#80cacf;}.cls-65{fill:#82cbcf;}.cls-66{fill:#83cbcf;}.cls-67{fill:#84ccd0;}.cls-68{fill:#86ccd0;}.cls-69{fill:#87cdd1;}.cls-70{fill:#88cdd1;}.cls-71{fill:#89ced1;}.cls-72{fill:#8bced2;}.cls-73{fill:#8cced2;}.cls-74{fill:#8dcfd3;}.cls-75{fill:#8ecfd3;}.cls-76{fill:#8fd0d4;}.cls-77{fill:#91d0d4;}.cls-78{fill:#92d1d4;}.cls-79{fill:#93d1d5;}.cls-80{fill:#94d1d5;}.cls-81{fill:#95d2d6;}.cls-82{fill:#97d2d6;}.cls-83{fill:#98d3d6;}.cls-84{fill:#98d3d7;}.cls-85{fill:#99d3d7;}.cls-86{fill:#9ad4d7;}.cls-87{fill:#9bd4d8;}.cls-88{fill:#9cd4d8;}.cls-89{fill:#9dd5d8;}.cls-90{fill:#9fd5d8;}.cls-91{fill:#a0d6d9;}.cls-92{fill:#a1d6d9;}.cls-93{fill:#a2d7d9;}.cls-94{fill:#a3d7da;}.cls-95{fill:#a4d7da;}.cls-96{fill:#a5d8db;}.cls-97{fill:#a6d8db;}.cls-98{fill:#a7d9db;}.cls-99{fill:#a8d9dc;}.cls-100{fill:#a9dadc;}.cls-101{fill:#aadadd;}.cls-102{fill:#acdadd;}.cls-103{fill:#addbdd;}.cls-104{fill:#addbde;}.cls-105{fill:#aedbde;}.cls-106{fill:#afdcde;}.cls-107{fill:#b0dcde;}.cls-108{fill:#b0dcdf;}.cls-109{fill:#b1dcdf;}.cls-110{fill:#b2dddf;}.cls-111{fill:#b2dde0;}.cls-112{fill:#b3dde0;}.cls-113{fill:#b4dee0;}.cls-114{fill:#b5dee1;}.cls-115{fill:#b6dee1;}.cls-116{fill:#b7dfe1;}.cls-117{fill:#b8dfe2;}.cls-118{fill:#b9e0e2;}.cls-119{fill:#bae0e2;}.cls-120{fill:#bbe1e3;}.cls-121{fill:#bce1e3;}.cls-122{fill:#bde1e3;}.cls-123{fill:#bee2e4;}.cls-124{fill:#bfe2e4;}.cls-125{fill:#c0e3e4;}.cls-126{fill:#c0e3e5;}.cls-127{fill:#c1e3e5;}.cls-128{fill:#c2e3e5;}.cls-129{fill:#c2e4e5;}.cls-130{fill:#c2e4e6;}.cls-131{fill:#c3e4e6;}.cls-132{fill:#c4e5e6;}.cls-133{fill:#c4e5e7;}.cls-134{fill:#c5e5e7;}.cls-135{fill:#c6e5e7;}.cls-136{fill:#c7e6e8;}.cls-137{fill:#c8e6e8;}.cls-138{fill:#c9e7e8;}.cls-139{fill:#cae7e9;}.cls-140{fill:#cbe7e9;}.cls-141{fill:#cce8ea;}.cls-142{fill:#cde8ea;}.cls-143{fill:#cee9eb;}.cls-144{fill:#cfe9eb;}.cls-145{fill:#d0e9eb;}.cls-146{fill:#d0eaec;}.cls-147{fill:#d1eaec;}.cls-148{fill:#d2eaec;}.cls-149{fill:#d2ebec;}.cls-150{fill:#d3ebec;}.cls-151{fill:#d4ebed;}.cls-152{fill:#d5eced;}.cls-153{fill:#d6eced;}.cls-154{fill:#d7ecee;}.cls-155{fill:#d8edee;}.cls-156{fill:#d9edef;}.cls-157{fill:#daeeef;}.cls-158{fill:#dbeeef;}.cls-159{fill:#dbeef0;}.cls-160{fill:#dceff0;}.cls-161{fill:#ddeff1;}.cls-162{fill:#def0f1;}.cls-163{fill:#dff0f2;}.cls-164{fill:#e0f0f2;}.cls-165{fill:#e1f1f2;}.cls-166{fill:#006ab6;}.cls-167{fill:#222;}</style></defs><title>logo_oc</title><g id="レイヤー_2" data-name="レイヤー 2"><g id="レイヤー_1-2" data-name="レイヤー 1"><path class="cls-1" d="M20.86,4.92A11.47,11.47,0,1,1,9.38,16.39,11.46,11.46,0,0,1,20.86,4.92"/><path class="cls-1" d="M10.09,16A10.37,10.37,0,1,1,20.45,26.33,10.36,10.36,0,0,1,10.09,16"/><path class="cls-2" d="M10.12,15.94A10.32,10.32,0,1,1,20.44,26.26,10.31,10.31,0,0,1,10.12,15.94"/><path class="cls-3" d="M10.15,15.92A10.27,10.27,0,1,1,20.42,26.19,10.26,10.26,0,0,1,10.15,15.92"/><path class="cls-4" d="M10.18,15.9A10.21,10.21,0,1,1,20.4,26.12,10.21,10.21,0,0,1,10.18,15.9"/><path class="cls-5" d="M10.21,15.89A10.16,10.16,0,1,1,20.37,26,10.16,10.16,0,0,1,10.21,15.89"/><path class="cls-6" d="M10.25,15.86A10.11,10.11,0,1,1,20.35,26,10.11,10.11,0,0,1,10.25,15.86"/><path class="cls-7" d="M10.28,15.83A10.06,10.06,0,1,1,20.34,25.91,10.05,10.05,0,0,1,10.28,15.83"/><path class="cls-8" d="M10.31,15.82a10,10,0,1,1,10,10,10,10,0,0,1-10-10"/><path class="cls-9" d="M10.35,15.8a10,10,0,1,1,9.95,10,10,10,0,0,1-9.95-10"/><path class="cls-10" d="M10.37,15.78a9.91,9.91,0,1,1,9.91,9.9,9.91,9.91,0,0,1-9.91-9.9"/><path class="cls-11" d="M10.4,15.76a9.86,9.86,0,1,1,9.87,9.85,9.86,9.86,0,0,1-9.87-9.85"/><path class="cls-11" d="M10.43,15.74a9.81,9.81,0,1,1,9.81,9.8,9.81,9.81,0,0,1-9.81-9.8"/><path class="cls-12" d="M10.47,15.72a9.75,9.75,0,1,1,9.76,9.75,9.75,9.75,0,0,1-9.76-9.75"/><path class="cls-13" d="M10.5,15.7a9.7,9.7,0,1,1,9.7,9.7,9.7,9.7,0,0,1-9.7-9.7"/><path class="cls-13" d="M10.53,15.67a9.66,9.66,0,1,1,9.65,9.66,9.65,9.65,0,0,1-9.65-9.66"/><path class="cls-14" d="M10.56,15.66a9.6,9.6,0,1,1,9.6,9.6,9.6,9.6,0,0,1-9.6-9.6"/><path class="cls-15" d="M10.59,15.63a9.55,9.55,0,1,1,9.55,9.55,9.55,9.55,0,0,1-9.55-9.55"/><path class="cls-16" d="M10.62,15.62a9.5,9.5,0,1,1,9.5,9.49,9.5,9.5,0,0,1-9.5-9.49"/><path class="cls-16" d="M10.65,15.6A9.45,9.45,0,1,1,20.11,25a9.46,9.46,0,0,1-9.45-9.45"/><path class="cls-17" d="M10.68,15.57A9.4,9.4,0,1,1,20.08,25a9.39,9.39,0,0,1-9.4-9.41"/><path class="cls-18" d="M10.71,15.55a9.35,9.35,0,1,1,9.36,9.35,9.35,9.35,0,0,1-9.36-9.35"/><path class="cls-19" d="M10.75,15.53a9.3,9.3,0,1,1,9.3,9.3,9.29,9.29,0,0,1-9.3-9.3"/><path class="cls-19" d="M10.78,15.51A9.24,9.24,0,1,1,20,24.76a9.23,9.23,0,0,1-9.24-9.25"/><path class="cls-20" d="M10.81,15.49A9.2,9.2,0,1,1,20,24.69a9.19,9.19,0,0,1-9.19-9.2"/><path class="cls-21" d="M10.84,15.47A9.14,9.14,0,1,1,20,24.61a9.14,9.14,0,0,1-9.14-9.14"/><path class="cls-22" d="M10.87,15.45A9.09,9.09,0,1,1,20,24.54a9.1,9.1,0,0,1-9.1-9.09"/><path class="cls-23" d="M10.91,15.43a9,9,0,1,1,9,9,9,9,0,0,1-9-9"/><path class="cls-24" d="M10.94,15.4a9,9,0,1,1,9,9,9,9,0,0,1-9-9"/><path class="cls-25" d="M11,15.39a8.94,8.94,0,1,1,8.95,8.94A8.94,8.94,0,0,1,11,15.39"/><path class="cls-26" d="M11,15.37a8.89,8.89,0,1,1,8.89,8.88A8.89,8.89,0,0,1,11,15.37"/><path class="cls-27" d="M11,15.34a8.84,8.84,0,1,1,8.84,8.83A8.84,8.84,0,0,1,11,15.34"/><path class="cls-28" d="M11.06,15.32a8.79,8.79,0,1,1,8.79,8.79,8.79,8.79,0,0,1-8.79-8.79"/><path class="cls-29" d="M11.1,15.3A8.74,8.74,0,1,1,19.83,24,8.74,8.74,0,0,1,11.1,15.3"/><path class="cls-30" d="M11.12,15.28A8.69,8.69,0,1,1,19.81,24a8.69,8.69,0,0,1-8.69-8.69"/><path class="cls-31" d="M11.15,15.26a8.64,8.64,0,1,1,8.64,8.64,8.64,8.64,0,0,1-8.64-8.64"/><path class="cls-32" d="M11.19,15.24a8.58,8.58,0,1,1,8.57,8.59,8.58,8.58,0,0,1-8.57-8.59"/><path class="cls-33" d="M11.22,15.22a8.53,8.53,0,1,1,8.53,8.53,8.53,8.53,0,0,1-8.53-8.53"/><path class="cls-33" d="M11.25,15.19a8.48,8.48,0,1,1,8.48,8.49,8.48,8.48,0,0,1-8.48-8.49"/><path class="cls-34" d="M11.28,15.18a8.43,8.43,0,1,1,8.43,8.43,8.43,8.43,0,0,1-8.43-8.43"/><path class="cls-35" d="M11.31,15.15a8.38,8.38,0,1,1,8.38,8.38,8.37,8.37,0,0,1-8.38-8.38"/><path class="cls-36" d="M11.35,15.13a8.33,8.33,0,1,1,8.32,8.33,8.33,8.33,0,0,1-8.32-8.33"/><path class="cls-36" d="M11.37,15.12a8.28,8.28,0,1,1,8.28,8.27,8.28,8.28,0,0,1-8.28-8.27"/><path class="cls-37" d="M11.4,15.09a8.23,8.23,0,1,1,8.23,8.22,8.23,8.23,0,0,1-8.23-8.22"/><path class="cls-38" d="M11.43,15.07a8.18,8.18,0,1,1,8.19,8.17,8.18,8.18,0,0,1-8.19-8.17"/><path class="cls-38" d="M11.47,15.06a8.12,8.12,0,1,1,8.12,8.12,8.12,8.12,0,0,1-8.12-8.12"/><path class="cls-39" d="M11.5,15a8.08,8.08,0,1,1,8.08,8.07A8.08,8.08,0,0,1,11.5,15"/><path class="cls-40" d="M11.53,15a8,8,0,1,1,8,8,8,8,0,0,1-8-8"/><path class="cls-41" d="M11.56,15a8,8,0,1,1,8,8,8,8,0,0,1-8-8"/><path class="cls-42" d="M11.59,15a7.92,7.92,0,1,1,7.92,7.91A7.93,7.93,0,0,1,11.59,15"/><path class="cls-43" d="M11.62,14.94a7.87,7.87,0,1,1,7.87,7.88,7.88,7.88,0,0,1-7.87-7.88"/><path class="cls-44" d="M11.65,14.93a7.82,7.82,0,1,1,7.83,7.81,7.82,7.82,0,0,1-7.83-7.81"/><path class="cls-45" d="M11.68,14.91a7.77,7.77,0,1,1,7.77,7.76,7.78,7.78,0,0,1-7.77-7.76"/><path class="cls-46" d="M11.72,14.88a7.72,7.72,0,1,1,7.72,7.72,7.71,7.71,0,0,1-7.72-7.72"/><path class="cls-47" d="M11.74,14.87a7.67,7.67,0,1,1,7.67,7.66,7.67,7.67,0,0,1-7.67-7.66"/><path class="cls-48" d="M11.79,14.84a7.61,7.61,0,1,1,7.61,7.62,7.61,7.61,0,0,1-7.61-7.62"/><path class="cls-49" d="M11.81,14.82a7.56,7.56,0,1,1,7.57,7.57,7.56,7.56,0,0,1-7.57-7.57"/><path class="cls-49" d="M11.84,14.8a7.52,7.52,0,1,1,7.52,7.51,7.51,7.51,0,0,1-7.52-7.51"/><path class="cls-50" d="M11.87,14.78a7.46,7.46,0,1,1,7.46,7.47,7.47,7.47,0,0,1-7.46-7.47"/><path class="cls-51" d="M11.9,14.76a7.41,7.41,0,1,1,7.42,7.42,7.42,7.42,0,0,1-7.42-7.42"/><path class="cls-52" d="M11.93,14.74A7.36,7.36,0,1,1,19.3,22.1a7.37,7.37,0,0,1-7.37-7.36"/><path class="cls-53" d="M12,14.72A7.31,7.31,0,1,1,19.28,22,7.31,7.31,0,0,1,12,14.72"/><path class="cls-54" d="M12,14.69A7.26,7.26,0,1,1,19.26,22,7.26,7.26,0,0,1,12,14.69"/><path class="cls-55" d="M12,14.67a7.21,7.21,0,1,1,7.21,7.21A7.21,7.21,0,0,1,12,14.67"/><path class="cls-56" d="M12.06,14.66a7.16,7.16,0,1,1,7.15,7.16,7.16,7.16,0,0,1-7.15-7.16"/><path class="cls-56" d="M12.09,14.64a7.11,7.11,0,1,1,7.11,7.1,7.11,7.11,0,0,1-7.11-7.1"/><path class="cls-57" d="M12.12,14.61a7.06,7.06,0,1,1,7.06,7.05,7.05,7.05,0,0,1-7.06-7.05"/><path class="cls-58" d="M12.15,14.6a7,7,0,1,1,7,7,7,7,0,0,1-7-7"/><path class="cls-58" d="M12.18,14.56a7,7,0,1,1,7,7,7,7,0,0,1-7-7"/><path class="cls-59" d="M12.22,14.55a6.9,6.9,0,1,1,6.91,6.9,6.9,6.9,0,0,1-6.91-6.9"/><path class="cls-60" d="M12.25,14.53a6.85,6.85,0,1,1,6.85,6.84,6.86,6.86,0,0,1-6.85-6.84"/><path class="cls-61" d="M12.28,14.51a6.8,6.8,0,1,1,6.81,6.8,6.8,6.8,0,0,1-6.81-6.8"/><path class="cls-61" d="M12.31,14.49a6.75,6.75,0,1,1,6.75,6.75,6.75,6.75,0,0,1-6.75-6.75"/><path class="cls-62" d="M12.34,14.47a6.7,6.7,0,1,1,6.7,6.7,6.7,6.7,0,0,1-6.7-6.7"/><path class="cls-63" d="M12.38,14.45A6.65,6.65,0,1,1,19,21.09a6.65,6.65,0,0,1-6.64-6.65"/><path class="cls-63" d="M12.4,14.42A6.6,6.6,0,1,1,19,21a6.6,6.6,0,0,1-6.61-6.6"/><path class="cls-64" d="M12.43,14.41A6.55,6.55,0,1,1,19,21a6.55,6.55,0,0,1-6.55-6.55"/><path class="cls-65" d="M12.46,14.39a6.5,6.5,0,1,1,6.5,6.5,6.5,6.5,0,0,1-6.5-6.5"/><path class="cls-66" d="M12.5,14.36a6.45,6.45,0,1,1,6.44,6.44,6.45,6.45,0,0,1-6.44-6.44"/><path class="cls-67" d="M12.53,14.34a6.4,6.4,0,1,1,6.39,6.4,6.39,6.39,0,0,1-6.39-6.4"/><path class="cls-67" d="M12.55,14.32a6.35,6.35,0,1,1,6.36,6.35,6.35,6.35,0,0,1-6.36-6.35"/><path class="cls-68" d="M12.59,14.29a6.3,6.3,0,1,1,6.3,6.3,6.3,6.3,0,0,1-6.3-6.3"/><path class="cls-69" d="M12.62,14.29a6.25,6.25,0,1,1,6.24,6.24,6.23,6.23,0,0,1-6.24-6.24"/><path class="cls-69" d="M12.65,14.26a6.19,6.19,0,1,1,6.19,6.2,6.2,6.2,0,0,1-6.19-6.2"/><path class="cls-70" d="M12.69,14.24a6.14,6.14,0,1,1,6.15,6.14,6.15,6.15,0,0,1-6.15-6.14"/><path class="cls-71" d="M12.71,14.21A6.09,6.09,0,1,1,18.8,20.3a6.1,6.1,0,0,1-6.09-6.09"/><path class="cls-72" d="M12.75,14.2a6,6,0,1,1,6,6,6,6,0,0,1-6-6"/><path class="cls-72" d="M12.78,14.17a6,6,0,1,1,6,6,6,6,0,0,1-6-6"/><path class="cls-73" d="M12.81,14.16a5.94,5.94,0,1,1,5.94,5.93,5.94,5.94,0,0,1-5.94-5.93"/><path class="cls-74" d="M12.85,14.14A5.89,5.89,0,1,1,18.73,20a5.89,5.89,0,0,1-5.88-5.89"/><path class="cls-74" d="M12.87,14.11a5.84,5.84,0,1,1,5.83,5.83,5.84,5.84,0,0,1-5.83-5.83"/><path class="cls-75" d="M12.9,14.09a5.79,5.79,0,1,1,5.79,5.78,5.78,5.78,0,0,1-5.79-5.78"/><path class="cls-76" d="M12.94,14.07a5.73,5.73,0,1,1,5.73,5.73,5.73,5.73,0,0,1-5.73-5.73"/><path class="cls-77" d="M13,14a5.68,5.68,0,1,1,5.68,5.69A5.68,5.68,0,0,1,13,14"/><path class="cls-78" d="M13,14a5.64,5.64,0,1,1,5.64,5.63A5.63,5.63,0,0,1,13,14"/><path class="cls-78" d="M13,14a5.58,5.58,0,1,1,5.58,5.58A5.58,5.58,0,0,1,13,14"/><path class="cls-79" d="M13.07,14a5.53,5.53,0,1,1,5.52,5.53A5.53,5.53,0,0,1,13.07,14"/><path class="cls-80" d="M13.1,14a5.47,5.47,0,1,1,5.47,5.47A5.47,5.47,0,0,1,13.1,14"/><path class="cls-80" d="M13.12,13.94a5.43,5.43,0,1,1,5.43,5.43,5.43,5.43,0,0,1-5.43-5.43"/><path class="cls-81" d="M13.16,13.93a5.38,5.38,0,1,1,5.38,5.37,5.38,5.38,0,0,1-5.38-5.37"/><path class="cls-82" d="M13.19,13.9a5.33,5.33,0,1,1,5.33,5.33,5.32,5.32,0,0,1-5.33-5.33"/><path class="cls-83" d="M13.22,13.88a5.27,5.27,0,1,1,5.28,5.27,5.28,5.28,0,0,1-5.28-5.27"/><path class="cls-84" d="M13.25,13.87a5.23,5.23,0,1,1,5.22,5.22,5.23,5.23,0,0,1-5.22-5.22"/><path class="cls-85" d="M13.28,13.84A5.18,5.18,0,1,1,18.45,19a5.17,5.17,0,0,1-5.17-5.18"/><path class="cls-86" d="M13.31,13.82a5.13,5.13,0,1,1,5.12,5.12,5.13,5.13,0,0,1-5.12-5.12"/><path class="cls-86" d="M13.34,13.8a5.07,5.07,0,1,1,5.07,5.07,5.08,5.08,0,0,1-5.07-5.07"/><path class="cls-87" d="M13.38,13.77a5,5,0,1,1,5,5,5,5,0,0,1-5-5"/><path class="cls-88" d="M13.4,13.76a5,5,0,1,1,5,5,5,5,0,0,1-5-5"/><path class="cls-89" d="M13.43,13.74a4.92,4.92,0,1,1,4.92,4.92,4.93,4.93,0,0,1-4.92-4.92"/><path class="cls-90" d="M13.47,13.72a4.87,4.87,0,1,1,4.87,4.86,4.88,4.88,0,0,1-4.87-4.86"/><path class="cls-90" d="M13.5,13.7a4.82,4.82,0,1,1,4.82,4.81A4.82,4.82,0,0,1,13.5,13.7"/><path class="cls-91" d="M13.53,13.67a4.77,4.77,0,1,1,4.77,4.76,4.77,4.77,0,0,1-4.77-4.76"/><path class="cls-92" d="M13.56,13.65a4.72,4.72,0,1,1,4.71,4.72,4.71,4.71,0,0,1-4.71-4.72"/><path class="cls-92" d="M13.59,13.64a4.66,4.66,0,1,1,4.66,4.67,4.67,4.67,0,0,1-4.66-4.67"/><path class="cls-93" d="M13.63,13.61a4.61,4.61,0,1,1,4.61,4.61,4.61,4.61,0,0,1-4.61-4.61"/><path class="cls-94" d="M13.66,13.59a4.57,4.57,0,1,1,4.56,4.57,4.56,4.56,0,0,1-4.56-4.57"/><path class="cls-94" d="M13.69,13.57a4.52,4.52,0,1,1,4.51,4.53,4.52,4.52,0,0,1-4.51-4.53"/><path class="cls-95" d="M13.72,13.55A4.46,4.46,0,1,1,18.17,18a4.46,4.46,0,0,1-4.46-4.46"/><path class="cls-96" d="M13.75,13.53a4.41,4.41,0,1,1,4.41,4.41,4.41,4.41,0,0,1-4.41-4.41"/><path class="cls-97" d="M13.78,13.51a4.36,4.36,0,1,1,4.37,4.36,4.36,4.36,0,0,1-4.37-4.36"/><path class="cls-97" d="M13.81,13.48a4.31,4.31,0,1,1,4.31,4.31,4.3,4.3,0,0,1-4.31-4.31"/><path class="cls-98" d="M13.84,13.47a4.26,4.26,0,1,1,4.26,4.26,4.25,4.25,0,0,1-4.26-4.26"/><path class="cls-99" d="M13.87,13.44a4.21,4.21,0,1,1,4.21,4.21,4.21,4.21,0,0,1-4.21-4.21"/><path class="cls-100" d="M13.9,13.42a4.16,4.16,0,1,1,4.15,4.16,4.16,4.16,0,0,1-4.15-4.16"/><path class="cls-100" d="M13.94,13.41A4.1,4.1,0,1,1,18,17.51a4.1,4.1,0,0,1-4.1-4.11"/><path class="cls-101" d="M14,13.38a4.05,4.05,0,1,1,4,4.06,4,4,0,0,1-4-4.06"/><path class="cls-102" d="M14,13.37a4,4,0,1,1,4,4,4,4,0,0,1-4-4"/><path class="cls-103" d="M14,13.34A4,4,0,1,1,18,17.29,3.95,3.95,0,0,1,14,13.34"/><path class="cls-104" d="M14.05,13.32A3.9,3.9,0,1,1,18,17.21a3.91,3.91,0,0,1-3.91-3.9"/><path class="cls-105" d="M14.09,13.29a3.85,3.85,0,1,1,3.85,3.86,3.85,3.85,0,0,1-3.85-3.86"/><path class="cls-106" d="M14.13,13.28a3.8,3.8,0,1,1,3.8,3.81,3.79,3.79,0,0,1-3.8-3.81"/><path class="cls-107" d="M14.16,13.26A3.75,3.75,0,1,1,17.91,17a3.76,3.76,0,0,1-3.75-3.74"/><path class="cls-108" d="M14.19,13.23a3.7,3.7,0,1,1,3.7,3.7,3.7,3.7,0,0,1-3.7-3.7"/><path class="cls-109" d="M14.22,13.22a3.65,3.65,0,1,1,3.65,3.64,3.66,3.66,0,0,1-3.65-3.64"/><path class="cls-110" d="M14.25,13.19a3.59,3.59,0,1,1,3.59,3.6,3.6,3.6,0,0,1-3.59-3.6"/><path class="cls-111" d="M14.28,13.18a3.55,3.55,0,1,1,3.55,3.54,3.54,3.54,0,0,1-3.55-3.54"/><path class="cls-112" d="M14.31,13.16a3.49,3.49,0,1,1,3.49,3.49,3.5,3.5,0,0,1-3.49-3.49"/><path class="cls-113" d="M14.35,13.14a3.44,3.44,0,1,1,3.44,3.44,3.44,3.44,0,0,1-3.44-3.44"/><path class="cls-114" d="M14.38,13.11a3.39,3.39,0,1,1,3.39,3.39,3.39,3.39,0,0,1-3.39-3.39"/><path class="cls-115" d="M14.41,13.09a3.34,3.34,0,1,1,3.34,3.33,3.34,3.34,0,0,1-3.34-3.33"/><path class="cls-115" d="M14.44,13.07a3.29,3.29,0,1,1,3.29,3.29,3.29,3.29,0,0,1-3.29-3.29"/><path class="cls-116" d="M14.47,13a3.24,3.24,0,1,1,3.24,3.24A3.24,3.24,0,0,1,14.47,13"/><path class="cls-117" d="M14.5,13a3.19,3.19,0,1,1,3.2,3.18A3.19,3.19,0,0,1,14.5,13"/><path class="cls-117" d="M14.53,13a3.14,3.14,0,1,1,3.14,3.14A3.15,3.15,0,0,1,14.53,13"/><path class="cls-118" d="M14.55,13a3.09,3.09,0,1,1,3.1,3.09A3.1,3.1,0,0,1,14.55,13"/><path class="cls-119" d="M14.59,13a3,3,0,1,1,3,3,3,3,0,0,1-3-3"/><path class="cls-119" d="M14.62,12.93a3,3,0,1,1,3,3,3,3,0,0,1-3-3"/><path class="cls-120" d="M14.66,12.93a2.93,2.93,0,1,1,2.94,2.93,2.94,2.94,0,0,1-2.94-2.93"/><path class="cls-121" d="M14.69,12.91a2.88,2.88,0,1,1,2.88,2.88,2.89,2.89,0,0,1-2.88-2.88"/><path class="cls-122" d="M14.72,12.88a2.83,2.83,0,1,1,2.83,2.83,2.83,2.83,0,0,1-2.83-2.83"/><path class="cls-122" d="M14.75,12.86a2.78,2.78,0,1,1,2.78,2.79,2.78,2.78,0,0,1-2.78-2.79"/><path class="cls-123" d="M14.78,12.84a2.74,2.74,0,1,1,2.73,2.73,2.73,2.73,0,0,1-2.73-2.73"/><path class="cls-124" d="M14.81,12.81a2.68,2.68,0,1,1,2.68,2.68,2.68,2.68,0,0,1-2.68-2.68"/><path class="cls-125" d="M14.84,12.8a2.63,2.63,0,1,1,2.63,2.62,2.64,2.64,0,0,1-2.63-2.62"/><path class="cls-126" d="M14.87,12.78a2.58,2.58,0,1,1,2.58,2.58,2.58,2.58,0,0,1-2.58-2.58"/><path class="cls-127" d="M14.9,12.75a2.53,2.53,0,1,1,2.53,2.54,2.53,2.53,0,0,1-2.53-2.54"/><path class="cls-128" d="M14.94,12.74a2.47,2.47,0,1,1,2.47,2.48,2.47,2.47,0,0,1-2.47-2.48"/><path class="cls-129" d="M15,12.72a2.42,2.42,0,1,1,2.42,2.42A2.41,2.41,0,0,1,15,12.72"/><path class="cls-130" d="M15,12.69a2.38,2.38,0,1,1,2.38,2.38A2.38,2.38,0,0,1,15,12.69"/><path class="cls-131" d="M15,12.67A2.32,2.32,0,1,1,17.36,15,2.32,2.32,0,0,1,15,12.67"/><path class="cls-132" d="M15.06,12.66a2.28,2.28,0,1,1,2.28,2.27,2.28,2.28,0,0,1-2.28-2.27"/><path class="cls-133" d="M15.09,12.63a2.22,2.22,0,1,1,2.22,2.22,2.23,2.23,0,0,1-2.22-2.22"/><path class="cls-134" d="M15.12,12.61a2.17,2.17,0,1,1,2.17,2.17,2.18,2.18,0,0,1-2.17-2.17"/><path class="cls-135" d="M15.16,12.58a2.12,2.12,0,1,1,2.12,2.13,2.12,2.12,0,0,1-2.12-2.13"/><path class="cls-136" d="M15.19,12.57a2.07,2.07,0,1,1,2.08,2.07,2.06,2.06,0,0,1-2.08-2.07"/><path class="cls-136" d="M15.22,12.55a2,2,0,1,1,2,2,2,2,0,0,1-2-2"/><path class="cls-137" d="M15.25,12.53a2,2,0,1,1,2,2,2,2,0,0,1-2-2"/><path class="cls-138" d="M15.28,12.5a1.92,1.92,0,1,1,1.92,1.92,1.91,1.91,0,0,1-1.92-1.92"/><path class="cls-139" d="M15.32,12.49a1.86,1.86,0,1,1,1.86,1.87,1.87,1.87,0,0,1-1.86-1.87"/><path class="cls-140" d="M15.35,12.46a1.81,1.81,0,1,1,1.82,1.82,1.81,1.81,0,0,1-1.82-1.82"/><path class="cls-140" d="M15.37,12.44a1.77,1.77,0,1,1,1.77,1.76,1.77,1.77,0,0,1-1.77-1.76"/><path class="cls-141" d="M15.41,12.42a1.71,1.71,0,1,1,1.71,1.71,1.71,1.71,0,0,1-1.71-1.71"/><path class="cls-142" d="M15.44,12.41a1.67,1.67,0,1,1,1.67,1.65,1.66,1.66,0,0,1-1.67-1.65"/><path class="cls-142" d="M15.47,12.38A1.61,1.61,0,1,1,17.08,14a1.61,1.61,0,0,1-1.61-1.62"/><path class="cls-143" d="M15.5,12.36a1.56,1.56,0,1,1,1.56,1.55,1.56,1.56,0,0,1-1.56-1.55"/><path class="cls-144" d="M15.53,12.34A1.51,1.51,0,1,1,17,13.85a1.51,1.51,0,0,1-1.51-1.51"/><path class="cls-144" d="M15.57,12.32A1.46,1.46,0,1,1,17,13.77a1.46,1.46,0,0,1-1.46-1.45"/><path class="cls-145" d="M15.6,12.3A1.41,1.41,0,1,1,17,13.7a1.4,1.4,0,0,1-1.4-1.41"/><path class="cls-146" d="M15.62,12.28A1.36,1.36,0,1,1,17,13.64a1.36,1.36,0,0,1-1.36-1.36"/><path class="cls-147" d="M15.66,12.26a1.31,1.31,0,1,1,1.3,1.3,1.3,1.3,0,0,1-1.3-1.3"/><path class="cls-148" d="M15.68,12.23a1.26,1.26,0,1,1,1.26,1.27,1.25,1.25,0,0,1-1.26-1.27"/><path class="cls-149" d="M15.72,12.22A1.2,1.2,0,0,1,16.92,11a1.21,1.21,0,1,1,0,2.42,1.2,1.2,0,0,1-1.2-1.2"/><path class="cls-150" d="M15.75,12.19a1.15,1.15,0,1,1,1.15,1.16,1.14,1.14,0,0,1-1.15-1.16"/><path class="cls-151" d="M15.78,12.18a1.1,1.1,0,1,1,1.11,1.1,1.11,1.11,0,0,1-1.11-1.1"/><path class="cls-151" d="M15.81,12.16a1.05,1.05,0,1,1,1.06,1,1.06,1.06,0,0,1-1.06-1"/><path class="cls-152" d="M15.85,12.13a1,1,0,1,1,1,1,1,1,0,0,1-1-1"/><path class="cls-153" d="M15.87,12.1a1,1,0,0,1,1.91,0,1,1,0,0,1-1.91,0"/><path class="cls-154" d="M15.91,12.1a.89.89,0,0,1,.9-.9.9.9,0,1,1-.9.9"/><path class="cls-154" d="M15.94,12.07a.85.85,0,0,1,1.7,0,.85.85,0,1,1-1.7,0"/><path class="cls-155" d="M16,12a.8.8,0,0,1,1.59,0A.8.8,0,1,1,16,12"/><path class="cls-156" d="M16,12a.75.75,0,0,1,.75-.74.74.74,0,0,1,.74.74.75.75,0,0,1-.74.75A.75.75,0,0,1,16,12"/><path class="cls-156" d="M16,12a.7.7,0,1,1,.69.69A.69.69,0,0,1,16,12"/><path class="cls-157" d="M16.06,12a.65.65,0,1,1,.64.64.65.65,0,0,1-.64-.64"/><path class="cls-158" d="M16.1,12a.59.59,0,1,1,.59.59A.59.59,0,0,1,16.1,12"/><path class="cls-159" d="M16.13,11.95a.54.54,0,0,1,.54-.55.54.54,0,1,1-.54.55"/><path class="cls-160" d="M16.16,11.92a.49.49,0,1,1,.5.5.5.5,0,0,1-.5-.5"/><path class="cls-160" d="M16.19,11.91a.44.44,0,1,1,.44.44.44.44,0,0,1-.44-.44"/><path class="cls-161" d="M16.23,11.88a.38.38,0,1,1,.38.39.39.39,0,0,1-.38-.39"/><path class="cls-162" d="M16.25,11.86a.34.34,0,0,1,.68,0,.34.34,0,1,1-.68,0"/><path class="cls-162" d="M16.28,11.85a.29.29,0,1,1,.29.28.28.28,0,0,1-.29-.28"/><path class="cls-163" d="M16.31,11.83a.23.23,0,0,1,.24-.23.23.23,0,0,1,.24.23.23.23,0,0,1-.24.23.24.24,0,0,1-.24-.23"/><path class="cls-164" d="M16.34,11.8a.19.19,0,0,1,.19-.19.18.18,0,0,1,.19.19.18.18,0,0,1-.19.18.18.18,0,0,1-.19-.18"/><path class="cls-165" d="M16.38,11.78a.12.12,0,0,1,.13-.13.13.13,0,0,1,.14.13.15.15,0,0,1-.14.14.14.14,0,0,1-.13-.14"/><path class="cls-166" d="M7.26,16.38A13.59,13.59,0,1,0,20.85,2.81,13.6,13.6,0,0,0,7.26,16.38m2.24,0A11.35,11.35,0,1,1,20.85,27.74,11.36,11.36,0,0,1,9.5,16.38"/><path class="cls-166" d="M8.11,20C2.93,24.23-1.17,29.85.3,31.93c1.76,2.51,13.13-1.84,21.62-8.31C36.45,12.54,43.29,2,44,.6c.19-.32.26-.52.17-.58s-.33.12-.44.24C42.42,1.7,39.07,5.41,27.41,14.58c-7.35,5.77-20.19,13.84-21.74,12-.44-.54.26-1.74,1.81-3.35.29-.31,1.75-1.53,1.71-1.58S8.37,19.85,8.11,20"/><path class="cls-167" d="M46.58,21.28A6.6,6.6,0,0,0,50,17.5h-.19c-.75,0-1.51.07-2.28.11V16.36c.76,0,1.52.1,2.28.1h.68V14.91H49.21a6,6,0,0,1-.89,1.31l-1.09-.67a5.75,5.75,0,0,0,1.6-3.46l1.23.44c.1,0,.21.11.21.2s-.08.17-.39.22a5.52,5.52,0,0,1-.31,1h1v-.63c0-.66,0-1.29,0-1.94l1.35.09c.11,0,.21.07.21.19s-.07.19-.42.36c0,.37,0,.9,0,1.37V14h.44c.68,0,1.7-.08,2.14-.12V15c-.42,0-1.41,0-2.12,0h-.44v1.53h.46c.78,0,1.55-.07,2.32-.1v1.25c-.76,0-1.54-.11-2.32-.11h-.2a6.86,6.86,0,0,0,3.16,3.71l-1,.87a7.9,7.9,0,0,1-2.42-2.76h0v.2c0,1.14.09,2.32.14,3.44H50.32c.08-1.06.2-2.27.2-3.4v-.38h0a7.69,7.69,0,0,1-2.93,3l-1-.86m-3.93-2.06A7.3,7.3,0,0,0,44.76,15h-.14a13.45,13.45,0,0,0-1.41.11V13.84a12.43,12.43,0,0,0,1.41.1h.29c0-.85,0-1.69,0-2.55l1.25.12c.17,0,.34.06.34.21s-.2.2-.4.31c0,.36,0,1.28,0,1.91.47,0,1.11-.08,1.43-.1v1.25A10.87,10.87,0,0,0,46,15v.36a5.42,5.42,0,0,0,1.8,2.72L47,19a4.49,4.49,0,0,1-1-1.22h0v1.76c0,1.15,0,2.24.13,3.42H44.69a29.64,29.64,0,0,0,.23-3.42V18.05h0a6,6,0,0,1-1.19,1.82l-1-.66"/><path class="cls-167" d="M63.24,11.53c.13,0,.37.07.37.19s-.2.28-.36.38c0,.67-.06,1.34,0,2h.18c1,0,3.08-.08,3.68-.1v1.25c-.59-.06-2.68-.12-3.68-.12h-.11a16.11,16.11,0,0,0,1.38,5.08c.33.65,1,1.21,1.22,1.21s.73-1.06.86-1.58l.81,1.21C67,22.44,66.55,23,65.93,23s-3.06-1.1-3.88-7.78l-2.28.07c-1,0-3.18.09-3.64.15V14.16c.46,0,2.66.08,3.64,0L62,14.14a27,27,0,0,1-.11-2.72l1.4.1M60.09,17c.54,0,1.5-.05,1.9-.08v1.12c-.42,0-1.28-.08-1.93-.08h-.22v2.73c.7-.1,1.82-.3,2.54-.41l-.16,1.06c-1.77.38-3.58.75-5.36,1.1,0,.21-.11.41-.29.41s-.18-.14-.2-.25l-.23-1.37c.82-.08,1.64-.19,2.45-.33V18H58.2a13.28,13.28,0,0,0-1.69.15V16.93c.44,0,1.37.09,1.81.09h1.77m4.79-5.51a5.61,5.61,0,0,1,1.62,1.35l-.87.89a7.28,7.28,0,0,0-1.6-1.4l.85-.85"/><path class="cls-167" d="M73.3,15.48c-.63,0-1.23,0-1.57-.06A11.6,11.6,0,0,0,74.18,13a10.16,10.16,0,0,0,2.59,2.43v0c-.48,0-.93,0-1.43,0h-2m2.16,4.33a10.2,10.2,0,0,1,1.11,1c-1.33.18-2.29.32-3.64.42a9.69,9.69,0,0,0,1.34-2.45h1.06c1,0,2.37,0,4.18.05V17.6c-1.82.12-3.15.15-4.21.15H72.54c-.94,0-2.09,0-3.28-.08v1.22a28.11,28.11,0,0,1,3.19-.13h.48a9.68,9.68,0,0,1-1.4,2.55c-.41,0-.89,0-1.34.05l.15,1.31c0,.11.08.18.16.18s.21-.09.31-.31c1.89-.16,4.69-.58,6.47-.83A5.57,5.57,0,0,1,78,23l1-.79a8.43,8.43,0,0,0-2.52-3l-1,.66m-6.2-3a10,10,0,0,0,2-1.06v.78a16.48,16.48,0,0,1,2-.08h2a18,18,0,0,1,2,.08V15.8a12.61,12.61,0,0,0,2.21,1l.82-1.14C78.22,15.16,76,14,75.11,12.3c.1,0,.22-.12.22-.23a.25.25,0,0,0-.22-.22l-1.32-.46a8.59,8.59,0,0,1-5.46,4.36l.93,1.06"/><path class="cls-167" d="M90,11.59c.16,0,.32,0,.32.18s-.08.18-.32.29c0,.27,0,1.64,0,2.45v.9h.23c.59,0,1.53-.06,2-.1v1.14a18.86,18.86,0,0,0-2-.08H90v4.94h.37c.61,0,1.6,0,2.37-.1v1.19c-.8-.06-1.59-.08-2.4-.08H88.09c-.56,0-1.75,0-2.26.08V21.27c.51,0,1.7.06,2.26.06h.66V16.39h-.56a17.14,17.14,0,0,0-2,.08V15.32c.51.06,1.48.1,2,.1h.56v-.89c0-.8,0-2,0-3.07l1.31.13m-5.37.14c.09,0,.24.08.24.22s-.08.21-.39.32c0,.33,0,.67,0,1v.63a7.86,7.86,0,0,0,1.34-.15l.46.49c-.51.81-1,1.61-1.56,2.36a9,9,0,0,1,2,1.82l-.87.84a7.54,7.54,0,0,0-1.41-1.5V20.5c0,.67.07,1.75.08,2.4H83.28c.08-.77.13-1.55.13-2.34V18.14a12.93,12.93,0,0,1-1.82,1.39l-.77-1a8.54,8.54,0,0,0,3.69-3.61H83.08c-.47,0-1.31.06-1.66.08v-1.2a12.63,12.63,0,0,0,1.47.07h.42v-.6c0-.56,0-1.12,0-1.68l1.36.13"/><path class="cls-167" d="M116.77,18.35a.34.34,0,0,1-.32.36h-.72a.33.33,0,0,1-.32-.36V7.18a.34.34,0,0,1,.32-.36h.72a.34.34,0,0,1,.32.36V18.35"/><path class="cls-167" d="M129.21,12.83c0,5.1,0,9.9-4.63,12-3.06,1.39-7.5,1.18-7.5,1.18a.36.36,0,0,1-.31-.36V22.11a.38.38,0,0,1,.39-.34,28.4,28.4,0,0,0,3.08,0c6.55-.2,7.63-2.16,7.63-9V7.18a.34.34,0,0,1,.32-.36h.71a.34.34,0,0,1,.32.36v5.66"/><path class="cls-167" d="M186.08,12.8a24.13,24.13,0,0,1-1.23,8.85A8.51,8.51,0,0,1,181.1,26a.35.35,0,0,1-.32-.36V20.74a1,1,0,0,1,.48-.71,4.37,4.37,0,0,0,2.33-1.91c.65-1,1.14-3,1.14-6.45v-4a.34.34,0,0,1,.31-.35h.72a.34.34,0,0,1,.31.35V12.8"/><path class="cls-167" d="M172.23,10a14.89,14.89,0,0,1-2.2,4.64,7.51,7.51,0,0,1-4,3.2c-.17,0-.55,0-.55-.49V13.93a1,1,0,0,1,.48-.71,8.22,8.22,0,0,0,2.6-1.34,5.86,5.86,0,0,0,2.3-3.1c.13-.36.49-2,.49-2a.34.34,0,0,1,.32-.35h.71a.33.33,0,0,1,.32.35,26.48,26.48,0,0,1-.46,3.25"/><path class="cls-167" d="M190.52,20.59c0,.58.36.62.74.62a5.49,5.49,0,0,0,4.48-2.33c1.06-1.64,1.44-6.3,1.47-6.67s.92-.35.92,0a38.16,38.16,0,0,1-.14,4.52,11.06,11.06,0,0,1-2,5.92,7.88,7.88,0,0,1-4.24,2.7,3.8,3.8,0,0,1-1.84.33c-.45,0-.73-.4-.73-1.22V7.11a.34.34,0,0,1,.32-.36h.72a.34.34,0,0,1,.32.36V20.59"/><path class="cls-167" d="M255.39,12.8a24.09,24.09,0,0,1-1.24,8.85A8.46,8.46,0,0,1,250.41,26a.36.36,0,0,1-.32-.36V20.74a1,1,0,0,1,.49-.71,4.37,4.37,0,0,0,2.33-1.91c.65-1,1.13-3,1.13-6.45v-4a.34.34,0,0,1,.32-.35h.72a.33.33,0,0,1,.31.35V12.8"/><path class="cls-167" d="M259.82,20.59c0,.58.37.62.74.62A5.49,5.49,0,0,0,265,18.88c1.07-1.64,1.44-6.3,1.47-6.67s.92-.35.92,0a37.78,37.78,0,0,1-.13,4.52,11.07,11.07,0,0,1-2,5.92,7.93,7.93,0,0,1-4.24,2.7,3.81,3.81,0,0,1-1.84.33c-.46,0-.73-.4-.73-1.22V7.11a.34.34,0,0,1,.31-.36h.72a.34.34,0,0,1,.31.36V20.59"/><path class="cls-167" d="M164.19,14.52c-.54,3.1-1.95,7.87-7.29,9.89a26,26,0,0,1-7.84,1.12.36.36,0,0,1-.32-.37V21.62a.39.39,0,0,1,.39-.34s.88.08,3.08,0c6.86-.15,9.49-2.38,10.54-7a33.73,33.73,0,0,0,.81-4.7.34.34,0,0,1,.36-.3l.71.1a.33.33,0,0,1,.26.39s-.11,1.33-.71,4.77"/><path class="cls-167" d="M147,21.18h-7.84V11.65h6.69a.33.33,0,0,0,.31-.36v-3a.33.33,0,0,0-.31-.36H131.27a.34.34,0,0,0-.32.36v3a.34.34,0,0,0,.32.36h6.51v9.53h-7.62a.33.33,0,0,0-.32.34v3a.34.34,0,0,0,.32.35H147a.34.34,0,0,0,.32-.35v-3a.33.33,0,0,0-.32-.34"/><path class="cls-167" d="M113.62,12.73a.34.34,0,0,1-.31.36H97.45a.34.34,0,0,1-.31-.36V9.79a.34.34,0,0,1,.31-.36h15.86a.34.34,0,0,1,.31.36v2.94"/><path class="cls-167" d="M109.86,25.9a.34.34,0,0,1-.32.36h-.72a.35.35,0,0,1-.32-.36V7.12a.34.34,0,0,1,.32-.36h.72a.33.33,0,0,1,.32.36V25.9"/><path class="cls-167" d="M107.73,12.13c-.3.45-2.12,6.15-10.79,8a.46.46,0,0,0-.36.51v4.15c0,.38.25.52.59.36,1.9-.9,7.57-3.44,11.62-12.42l-1.06-.59"/><path class="cls-167" d="M214.79,8H201.64a.34.34,0,0,0-.31.35v2.94a.34.34,0,0,0,.31.35H214a.6.6,0,0,1,.59.57v8.68c0,.39-.22.53-.64.53H201.38a.34.34,0,0,0-.32.35v2.93a.34.34,0,0,0,.32.36h13.45a1.1,1.1,0,0,0,1.07-1V9c0-.66-.19-1-1.11-1"/><path class="cls-167" d="M252.55,10.65a.33.33,0,0,0-.32-.35h-3.16c-.25,0-.32,0-.32-.35v-3a.34.34,0,0,0-.31-.36h-.71a.34.34,0,0,0-.32.36v3c0,.32-.14.35-.31.35h-7.38c-.3,0-.32-.06-.32-.35v-3a.34.34,0,0,0-.32-.36h-.63a.34.34,0,0,0-.31.36v3c0,.25-.1.41-.27.41h-3.21a.32.32,0,0,0-.31.35v2.94a.33.33,0,0,0,.31.36h3.21a.26.26,0,0,1,.28.29v4a.34.34,0,0,0,.31.35h.63a.34.34,0,0,0,.32-.35v-4a.34.34,0,0,1,.32-.35h7.38a.34.34,0,0,1,.31.35s0,.88-.06,1.87c-.35,5-2.69,5.63-7.64,5.63-.59,0-.69.05-.69.6,0,.73,0,2.69,0,3,0,.66.18.67,1,.63,5.82-.26,8.74-3.5,8.74-9.57,0-1.05,0-2.15,0-2.15a.31.31,0,0,1,.3-.35h3.16a.34.34,0,0,0,.32-.35V10.65"/><path class="cls-167" d="M150.15,7.54c.36.09,2.35.63,3.61,1.05s2.81,1.16,3,1.27.21.34.13.57-.92,2.53-1,2.79-.43.22-.73.11-1.11-.51-2.88-1.19a28,28,0,0,0-3.22-1.08c-.29-.07-.43-.21-.31-.61s.75-2.36.85-2.62.27-.37.55-.3"/><path class="cls-167" d="M172.08,13.89c.34.14,2.23.95,3.42,1.56s3.26,1.82,3.45,2,.16.37,0,.58-1.27,2.16-1.4,2.39-.52,0-.79-.15-1.5-.77-3.15-1.7S171,17,170.58,16.76c-.26-.15-.4-.27-.22-.64s1-1.77,1.13-2a.43.43,0,0,1,.59-.22"/><path class="cls-167" d="M233.05,14.52c-.54,3.1-2,7.87-7.29,9.89a26,26,0,0,1-7.84,1.12.35.35,0,0,1-.32-.37V21.62a.39.39,0,0,1,.39-.34s.88.08,3.08,0c6.86-.15,9.49-2.38,10.54-7a34.82,34.82,0,0,0,.82-4.7.33.33,0,0,1,.36-.3l.71.1a.33.33,0,0,1,.25.39s-.11,1.33-.7,4.77"/><path class="cls-167" d="M181.57,14.38c-.54,3.1-2.46,8.45-7.8,10.47a24.24,24.24,0,0,1-6.39,1.37.36.36,0,0,1-.31-.37V22.29a.37.37,0,0,1,.38-.33,21.8,21.8,0,0,0,2.2-.05c5.7-.36,8.27-1.61,10.14-6.75a16.23,16.23,0,0,0,.62-2.13c.13-.55-.08-.73-.54-.73h-8.61c-.42,0,.45-3.3.84-3.74l8.7,0c.87,0,1.27.47,1.27,1a22.53,22.53,0,0,1-.48,4.84"/><path class="cls-167" d="M275.41,10a14.77,14.77,0,0,1-2.2,4.64,7.51,7.51,0,0,1-4,3.2c-.18,0-.54,0-.54-.49V13.93a.94.94,0,0,1,.48-.71,8.24,8.24,0,0,0,2.59-1.34A5.86,5.86,0,0,0,274,8.77c.13-.36.48-2,.48-2a.34.34,0,0,1,.32-.35h.71a.34.34,0,0,1,.32.35,26.62,26.62,0,0,1-.47,3.25"/><path class="cls-167" d="M275.26,13.89c.34.14,2.23.95,3.42,1.56s3.26,1.82,3.46,2,.16.37,0,.58-1.27,2.16-1.42,2.39-.51,0-.78-.15-1.49-.77-3.14-1.7-2.61-1.48-3.08-1.77c-.26-.15-.41-.27-.22-.64s1-1.77,1.13-2a.43.43,0,0,1,.59-.22"/><path class="cls-167" d="M284.76,14.38c-.55,3.1-2.47,8.45-7.81,10.47a24.17,24.17,0,0,1-6.39,1.37.36.36,0,0,1-.32-.37V22.29a.38.38,0,0,1,.39-.33,21.68,21.68,0,0,0,2.19-.05c5.69-.36,8.27-1.61,10.14-6.75a17.32,17.32,0,0,0,.62-2.13c.12-.55-.08-.73-.54-.73h-8.62c-.41,0,.44-3.3.85-3.74l8.7,0c.86,0,1.28.47,1.28,1a22.79,22.79,0,0,1-.49,4.84"/><path class="cls-167" d="M219,7.54c.36.09,2.34.63,3.61,1.05s2.81,1.16,3,1.27.2.34.13.57-.92,2.53-1,2.79-.42.22-.72.11-1.12-.51-2.89-1.19a26.87,26.87,0,0,0-3.23-1.08c-.3-.07-.43-.21-.3-.61s.75-2.36.87-2.62a.41.41,0,0,1,.54-.3"/><path class="cls-167" d="M301.92,14.52c-.54,3.1-1.94,7.87-7.28,9.89a26,26,0,0,1-7.85,1.12.35.35,0,0,1-.32-.37V21.62a.39.39,0,0,1,.38-.34s.9.08,3.09,0c6.87-.15,9.49-2.38,10.54-7a34,34,0,0,0,.83-4.7.32.32,0,0,1,.36-.3l.71.1a.32.32,0,0,1,.26.39s-.1,1.33-.71,4.77"/><path class="cls-167" d="M319.25,14.58c-.54,3.11-1.53,7-6.09,9.77a13.51,13.51,0,0,1-6.6,1.62.35.35,0,0,1-.31-.36V22.06a.38.38,0,0,1,.39-.33s1.14-.06,3.31-.4c5-.79,6.87-3.17,7.92-7.82a49.35,49.35,0,0,0,.92-5.08.35.35,0,0,1,.37-.31l.7.1a.35.35,0,0,1,.26.4s-.26,2.53-.87,6"/><path class="cls-167" d="M287.88,7.54c.36.09,2.35.63,3.61,1.05s2.81,1.16,3,1.27.21.34.13.57-.92,2.53-1,2.79-.43.22-.72.11-1.12-.51-2.89-1.19a26.72,26.72,0,0,0-3.23-1.08c-.28-.07-.43-.21-.3-.61s.75-2.36.86-2.62.26-.37.55-.3"/><path class="cls-167" d="M303.71,9.26c.12.32.65,2.27.92,3.23s.91,3.32,1,3.53a.35.35,0,0,0,.47.18c.15-.05.56-.24.69-.29s.29-.21.21-.55-.52-1.92-1-3.47-.86-2.79-1-3a.41.41,0,0,0-.45-.33,5.08,5.08,0,0,0-.73.26.37.37,0,0,0-.2.46"/><path class="cls-167" d="M310.11,8.53c.08.35.42,2.34.6,3.32s.57,3.39.65,3.61a.35.35,0,0,0,.45.23c.16,0,.58-.19.71-.21s.32-.19.27-.54-.33-2-.62-3.54-.58-2.86-.64-3.12a.44.44,0,0,0-.43-.37,4.39,4.39,0,0,0-.73.19.38.38,0,0,0-.25.44"/><path class="cls-166" d="M27.94,5.33a82.45,82.45,0,0,1,7.72-3.86c.63-.19.76.06.19.38S32.77,3.78,31.5,4.76L29.28,6.47,27.94,5.33"/><path class="cls-167" d="M5.55,37.09a1.26,1.26,0,0,1,1.27,1.18,1.27,1.27,0,1,1-2.54,0,1.25,1.25,0,0,1,1.27-1.18m0-1.13a2.39,2.39,0,1,0,0,4.77,2.39,2.39,0,1,0,0-4.77"/><path class="cls-167" d="M9.74,37h.11c.37,0,.8.07.8.56s-.43.55-.8.55H9.74V37m1.14,1.75a1.19,1.19,0,0,0,1-1.26c0-1-.67-1.38-1.55-1.38H8.57v4.47H9.74V38.86h0l1.1,1.72h1.45l-1.41-1.83"/><rect class="cls-167" x="12.61" y="36.11" width="1.17" height="4.47"/><path class="cls-167" d="M17.74,37.61a1.26,1.26,0,0,0-1-.5,1.18,1.18,0,0,0-1.2,1.24,1.17,1.17,0,0,0,1.22,1.22,1.33,1.33,0,0,0,1-.47v1.4a3.35,3.35,0,0,1-1,.2A2.51,2.51,0,0,1,15,40a2.23,2.23,0,0,1-.72-1.69A2.31,2.31,0,0,1,15,36.71a2.38,2.38,0,0,1,1.7-.72,2.9,2.9,0,0,1,1.07.22v1.41"/><path class="cls-167" d="M20.7,37.09A1.25,1.25,0,0,1,22,38.27a1.27,1.27,0,1,1-2.53,0,1.25,1.25,0,0,1,1.27-1.18m0-1.13a2.39,2.39,0,1,0,2.48,2.3A2.39,2.39,0,0,0,20.7,36"/><polyline class="cls-167" points="23.72 36.11 24.89 36.11 27.02 38.84 27.03 38.84 27.03 36.11 28.19 36.11 28.19 40.58 27.03 40.58 24.89 37.84 24.89 37.84 24.89 40.58 23.72 40.58 23.72 36.11"/><path class="cls-167" d="M31.41,37.26a1.2,1.2,0,0,0-.77-.3c-.21,0-.5.12-.5.37s.32.37.52.43l.3.09c.62.18,1.1.5,1.1,1.23a1.51,1.51,0,0,1-.46,1.2,2,2,0,0,1-1.27.42,2.73,2.73,0,0,1-1.57-.52l.5-.94a1.54,1.54,0,0,0,1,.47c.28,0,.56-.14.56-.46s-.45-.44-.7-.52c-.72-.19-1.21-.39-1.21-1.26A1.45,1.45,0,0,1,30.48,36a3.07,3.07,0,0,1,1.4.37l-.47.9"/><path class="cls-167" d="M36.49,36.11v2.52A2,2,0,0,1,36,40.21a2.48,2.48,0,0,1-3,0,2,2,0,0,1-.48-1.58V36.11h1.17v2.35c0,.58,0,1.22.79,1.22s.79-.64.79-1.22V36.11h1.16"/><polyline class="cls-167" points="38.4 39.59 39.79 39.59 39.79 40.58 37.23 40.58 37.23 36.11 38.4 36.11 38.4 39.59"/></g></g></svg>